<svg xmlns="http://www.w3.org/2000/svg" viewBox="0 0 24 24" width="24" height="24">
  <defs>
    <linearGradient id="cafeGrad" x1="0%" y1="0%" x2="0%" y2="100%">
      <stop offset="0%" style="stop-color:#8D6E63"/>
      <stop offset="100%" style="stop-color:#5D4037"/>
    </linearGradient>
    <linearGradient id="coffeeGrad" x1="0%" y1="0%" x2="0%" y2="100%">
      <stop offset="0%" style="stop-color:#6D4C41"/>
      <stop offset="100%" style="stop-color:#4E342E"/>
    </linearGradient>
  </defs>
  <!-- Steam -->
  <g fill="none" stroke="#BDBDBD" stroke-width="1.2" stroke-linecap="round">
    <path d="M8 5c0-1.5 1.5-1.5 1.5-3"/>
    <path d="M12 5c0-1.5 1.5-1.5 1.5-3"/>
    <path d="M16 5c0-1.5 1.5-1.5 1.5-3"/>
  </g>
  <!-- Cup body -->
  <path d="M4 8h14v7c0 2.76-2.24 5-5 5H9c-2.76 0-5-2.24-5-5V8z" fill="url(#cafeGrad)"/>
  <!-- Coffee surface -->
  <ellipse cx="11" cy="9.5" rx="5.5" ry="1.5" fill="url(#coffeeGrad)"/>
  <!-- Cup highlight -->
  <path d="M5 8.5v6c0 2.2 1.8 4 4 4" fill="none" stroke="rgba(255,255,255,0.2)" stroke-width="1.5" stroke-linecap="round"/>
  <!-- Handle -->
  <path d="M18 9.5c2 0 3 1.5 3 3s-1 3-3 3" fill="none" stroke="url(#cafeGrad)" stroke-width="2.5" stroke-linecap="round"/>
  <!-- Saucer -->
  <ellipse cx="11" cy="20.5" rx="8" ry="1.5" fill="#BCAAA4"/>
  <ellipse cx="11" cy="20.5" rx="6" ry="1" fill="#D7CCC8"/>
</svg>
