<svg xmlns="http://www.w3.org/2000/svg" viewBox="0 0 24 24" width="24" height="24">
  <defs>
    <linearGradient id="bagGrad" x1="0%" y1="0%" x2="100%" y2="100%">
      <stop offset="0%" style="stop-color:#66BB6A"/>
      <stop offset="100%" style="stop-color:#43A047"/>
    </linearGradient>
    <linearGradient id="appleGrad" x1="0%" y1="0%" x2="100%" y2="100%">
      <stop offset="0%" style="stop-color:#EF5350"/>
      <stop offset="100%" style="stop-color:#E53935"/>
    </linearGradient>
    <linearGradient id="orangeGrad" x1="0%" y1="0%" x2="100%" y2="100%">
      <stop offset="0%" style="stop-color:#FFA726"/>
      <stop offset="100%" style="stop-color:#FB8C00"/>
    </linearGradient>
  </defs>
  <!-- Bag body -->
  <path d="M4 7h16l-1.5 14H5.5L4 7z" fill="url(#bagGrad)"/>
  <!-- Bag fold/top -->
  <path d="M4 7l1-2h14l1 2H4z" fill="#81C784"/>
  <!-- Bag handles -->
  <path d="M8 5V4c0-1.1.9-2 2-2h4c1.1 0 2 .9 2 2v1" fill="none" stroke="#388E3C" stroke-width="1.5" stroke-linecap="round"/>
  <!-- Bag highlight -->
  <path d="M5 8l-0.5 10" fill="none" stroke="rgba(255,255,255,0.25)" stroke-width="1.5" stroke-linecap="round"/>
  <!-- Apple -->
  <circle cx="9" cy="13" r="2.8" fill="url(#appleGrad)"/>
  <path d="M9 10.5c0.5-1 1.5-1 1.5-1" fill="none" stroke="#8D6E63" stroke-width="0.75" stroke-linecap="round"/>
  <ellipse cx="8.2" cy="12.5" rx="0.6" ry="0.8" fill="rgba(255,255,255,0.3)"/>
  <!-- Orange -->
  <circle cx="14" cy="14" r="2.5" fill="url(#orangeGrad)"/>
  <ellipse cx="13.3" cy="13.5" rx="0.5" ry="0.7" fill="rgba(255,255,255,0.3)"/>
  <!-- Leaf on bag -->
  <path d="M17 8c-1 0-2 1-2 2c1 0 2-1 2-2z" fill="#A5D6A7"/>
</svg>
