<svg xmlns="http://www.w3.org/2000/svg" viewBox="0 0 24 24" width="24" height="24">
  <defs>
    <linearGradient id="buildingGrad" x1="0%" y1="0%" x2="0%" y2="100%">
      <stop offset="0%" style="stop-color:#7E57C2"/>
      <stop offset="100%" style="stop-color:#5E35B1"/>
    </linearGradient>
    <linearGradient id="roofGrad" x1="0%" y1="0%" x2="0%" y2="100%">
      <stop offset="0%" style="stop-color:#9575CD"/>
      <stop offset="100%" style="stop-color:#7E57C2"/>
    </linearGradient>
    <linearGradient id="columnGrad" x1="0%" y1="0%" x2="100%" y2="0%">
      <stop offset="0%" style="stop-color:#EDE7F6"/>
      <stop offset="50%" style="stop-color:#FFFFFF"/>
      <stop offset="100%" style="stop-color:#D1C4E9"/>
    </linearGradient>
  </defs>
  <!-- Base/steps -->
  <rect x="2" y="19" width="20" height="2" rx="0.5" fill="#B39DDB"/>
  <rect x="3" y="17" width="18" height="2" rx="0.3" fill="#D1C4E9"/>
  <!-- Main building body -->
  <rect x="4" y="8" width="16" height="9" fill="url(#buildingGrad)"/>
  <!-- Roof/pediment -->
  <path d="M2 8.5L12 3l10 5.5H2z" fill="url(#roofGrad)"/>
  <path d="M3 8.5L12 4l9 4.5H3z" fill="#9575CD"/>
  <!-- Roof detail line -->
  <path d="M4 8h16" stroke="#B39DDB" stroke-width="0.5"/>
  <!-- Columns -->
  <rect x="5.5" y="9" width="2" height="8" rx="0.3" fill="url(#columnGrad)"/>
  <rect x="9" y="9" width="2" height="8" rx="0.3" fill="url(#columnGrad)"/>
  <rect x="13" y="9" width="2" height="8" rx="0.3" fill="url(#columnGrad)"/>
  <rect x="16.5" y="9" width="2" height="8" rx="0.3" fill="url(#columnGrad)"/>
  <!-- Column bases -->
  <rect x="5.2" y="16.5" width="2.6" height="0.8" rx="0.2" fill="#EDE7F6"/>
  <rect x="8.7" y="16.5" width="2.6" height="0.8" rx="0.2" fill="#EDE7F6"/>
  <rect x="12.7" y="16.5" width="2.6" height="0.8" rx="0.2" fill="#EDE7F6"/>
  <rect x="16.2" y="16.5" width="2.6" height="0.8" rx="0.2" fill="#EDE7F6"/>
  <!-- Column capitals -->
  <rect x="5.2" y="8.7" width="2.6" height="0.6" rx="0.2" fill="#EDE7F6"/>
  <rect x="8.7" y="8.7" width="2.6" height="0.6" rx="0.2" fill="#EDE7F6"/>
  <rect x="12.7" y="8.7" width="2.6" height="0.6" rx="0.2" fill="#EDE7F6"/>
  <rect x="16.2" y="8.7" width="2.6" height="0.6" rx="0.2" fill="#EDE7F6"/>
  <!-- Door -->
  <rect x="10" y="12" width="4" height="5" rx="0.5" fill="#4527A0"/>
  <path d="M10 12h4v0.5a2 2 0 01-2 2 2 2 0 01-2-2V12z" fill="#5E35B1"/>
  <!-- Door handle -->
  <circle cx="13" cy="15" r="0.4" fill="#B39DDB"/>
</svg>
