<svg xmlns="http://www.w3.org/2000/svg" viewBox="0 0 24 24" width="24" height="24">
  <defs>
    <linearGradient id="restaurantGrad" x1="0%" y1="0%" x2="100%" y2="100%">
      <stop offset="0%" style="stop-color:#FF7043"/>
      <stop offset="100%" style="stop-color:#E64A19"/>
    </linearGradient>
  </defs>
  <!-- Plate -->
  <circle cx="12" cy="14" r="8" fill="#F5F5F5" stroke="#E0E0E0" stroke-width="0.5"/>
  <circle cx="12" cy="14" r="6" fill="none" stroke="#EEEEEE" stroke-width="0.75"/>
  <!-- Fork -->
  <g fill="url(#restaurantGrad)">
    <path d="M7.5 3v6c0 1.1.9 2 2 2v8.5c0 .55.45 1 1 1s1-.45 1-1V11c1.1 0 2-.9 2-2V3h-1.5v5h-1V3h-1.5v5h-1V3H7.5z"/>
  </g>
  <!-- Knife -->
  <g fill="url(#restaurantGrad)">
    <path d="M16 3c-1.1 0-2 .9-2 2v5.5c0 .55.45 1 1 1s1-.45 1-1V3h1v7.5c0 .55.45 1 1 1s1-.45 1-1V5c0-1.1-.9-2-2-2h-1z"/>
    <rect x="15.5" y="10" width="1" height="9.5" rx="0.5"/>
  </g>
</svg>
