<svg xmlns="http://www.w3.org/2000/svg" viewBox="0 0 24 24" width="24" height="24">
  <defs>
    <linearGradient id="skyGrad" x1="0%" y1="0%" x2="0%" y2="100%">
      <stop offset="0%" style="stop-color:#64B5F6"/>
      <stop offset="100%" style="stop-color:#90CAF9"/>
    </linearGradient>
    <linearGradient id="mountain1Grad" x1="0%" y1="0%" x2="0%" y2="100%">
      <stop offset="0%" style="stop-color:#5C6BC0"/>
      <stop offset="100%" style="stop-color:#3F51B5"/>
    </linearGradient>
    <linearGradient id="mountain2Grad" x1="0%" y1="0%" x2="0%" y2="100%">
      <stop offset="0%" style="stop-color:#7986CB"/>
      <stop offset="100%" style="stop-color:#5C6BC0"/>
    </linearGradient>
    <linearGradient id="grassGrad" x1="0%" y1="0%" x2="0%" y2="100%">
      <stop offset="0%" style="stop-color:#66BB6A"/>
      <stop offset="100%" style="stop-color:#43A047"/>
    </linearGradient>
  </defs>
  <!-- Sky background -->
  <rect x="0" y="0" width="24" height="24" rx="3" fill="url(#skyGrad)"/>
  <!-- Sun -->
  <circle cx="18" cy="5" r="3" fill="#FFD54F"/>
  <circle cx="18" cy="5" r="2" fill="#FFECB3"/>
  <!-- Back mountain -->
  <path d="M0 20L8 8l4 5 4-7 8 14H0z" fill="url(#mountain1Grad)"/>
  <!-- Snow cap back -->
  <path d="M8 8l2 2.5L8.5 12l-1-1L8 8z" fill="#E3F2FD"/>
  <path d="M16 6l2.5 4-1.5 1-1.5-2L16 6z" fill="#E3F2FD"/>
  <!-- Front mountain -->
  <path d="M-2 22L6 12l3 3 5-6 10 13H-2z" fill="url(#mountain2Grad)"/>
  <!-- Snow cap front -->
  <path d="M14 9l1.5 2.5-1 0.8-1.2-1.5L14 9z" fill="#FFFFFF"/>
  <!-- Grass/ground -->
  <path d="M0 19c4-1 8 1 12 0s8 1 12 0v5H0v-5z" fill="url(#grassGrad)"/>
  <!-- Tree silhouettes -->
  <path d="M3 19l1.5-4 1.5 4H3z" fill="#2E7D32"/>
  <path d="M20 18l1-3 1 3h-2z" fill="#388E3C"/>
</svg>
